<?xml version="1.0" encoding="utf-8"?>
<!-- Generator: Adobe Illustrator 18.1.1, SVG Export Plug-In . SVG Version: 6.00 Build 0)  -->
<!DOCTYPE svg PUBLIC "-//W3C//DTD SVG 1.1//EN" "http://www.w3.org/Graphics/SVG/1.1/DTD/svg11.dtd">
<svg version="1.1" id="Layer_1" xmlns="http://www.w3.org/2000/svg" xmlns:xlink="http://www.w3.org/1999/xlink" x="0px" y="0px"
	 viewBox="0 0 371 454.5" enable-background="new 0 0 371 454.5" xml:space="preserve">
<g>
	<linearGradient id="SVGID_1_" gradientUnits="userSpaceOnUse" x1="210.7828" y1="471.8077" x2="90.9987" y2="108.5064">
		<stop  offset="0" style="stop-color:#147688"/>
		<stop  offset="0.4691" style="stop-color:#2F8841;stop-opacity:0.9515"/>
		<stop  offset="1" style="stop-color:#C2AB2F"/>
	</linearGradient>
	<path fill="url(#SVGID_1_)" d="M110.1,154.7c-2.4-0.2-4.5-0.3-6.6-0.6c-12.9-2.2-22.9-11.4-24.5-24.3c-1.1-9.1-1.1-18.7,0.4-27.8
		c2.2-13.9,14.4-23.2,28.5-23.2c49.5-0.1,99-0.1,148.5,0c16.8,0,29.6,13.3,29.7,30c0,5.3,0,10.7,0,16c-0.1,15.8-12.2,28.6-28,29.7
		c-1.1,0.1-2.3,0.1-4,0.2c0,7.6,0.7,15.1-0.1,22.5c-2.4,20,4.1,36.8,14.4,53.8c32.6,54.4,63.9,109.6,95.7,164.5
		c5,8.7,8.3,17.9,6.6,28.1c-2.6,15.8-15.1,27.9-32.7,29.7c-13.7,1.4-27.6,1.2-41.4,1.2c-85.8,0.1-171.6,0.1-257.4-0.1
		c-6.2,0-12.7-0.8-18.6-2.8C3.4,446-3.7,430.2,1.9,411c1.6-5.5,4.1-10.9,6.8-16c33-61.6,66.1-123.2,99-184.8
		c1.6-2.9,2.4-6.5,2.5-9.9c0.3-13.8,0.1-27.7,0.1-41.5C110.3,157.5,110.2,156.2,110.1,154.7z M126.1,138.8c0,22.4,0.1,44.1-0.1,65.7
		c0,3.2-0.8,6.6-2.3,9.4C90.1,276.7,56.3,339.4,22.7,402.2c-2.6,4.8-4.7,10-6.1,15.2c-3,11.5,1.6,18.4,13.2,20.6
		c2.9,0.5,6,0.8,8.9,0.8c96,0,191.9,0,287.9,0c3.3,0,6.7-0.4,9.9-1.2c8.4-1.9,12-6.8,11.8-15.4c-0.2-8.9-4.6-16.2-8.6-23.7
		c-33.2-61.8-66.5-123.7-99.7-185.6c-1-1.9-1.7-4.4-1.7-6.6c-0.1-21.2-0.1-42.3-0.1-63.5c0-1.3,0.2-2.5,0.4-4.1
		c5.9,0,11.6,0.1,17.2,0c8.3-0.2,14.1-5.9,14.3-14.2c0.1-5.2,0.1-10.3,0-15.5c-0.2-8.6-5.8-14.5-14.5-14.5
		c-49.1-0.1-98.3-0.1-147.4,0c-8.3,0-14.1,5.9-14.3,14.2c-0.1,5-0.1,10,0,15c0.1,9.2,5.8,15,15,15.1
		C114.5,138.8,120,138.8,126.1,138.8z"/>
	<linearGradient id="SVGID_2_" gradientUnits="userSpaceOnUse" x1="292.2199" y1="444.9571" x2="172.4357" y2="81.6558">
		<stop  offset="0" style="stop-color:#147688"/>
		<stop  offset="0.4691" style="stop-color:#2F8841;stop-opacity:0.9515"/>
		<stop  offset="1" style="stop-color:#C2AB2F"/>
	</linearGradient>
	<path fill="url(#SVGID_2_)" d="M141.1,42.5c0-10.2,8.1-18.4,18.3-18.5c10.2-0.1,18.7,8.4,18.7,18.7c0,10.1-8.3,18.4-18.4,18.5
		C149.4,61.3,141.1,52.9,141.1,42.5z"/>
	<linearGradient id="SVGID_3_" gradientUnits="userSpaceOnUse" x1="339.74" y1="429.2892" x2="219.9559" y2="65.9879">
		<stop  offset="0" style="stop-color:#147688"/>
		<stop  offset="0.4691" style="stop-color:#2F8841;stop-opacity:0.9515"/>
		<stop  offset="1" style="stop-color:#C2AB2F"/>
	</linearGradient>
	<path fill="url(#SVGID_3_)" d="M219.3,15.7c0,9-6.6,15.8-15.6,15.9c-8.8,0.1-15.9-6.8-16.1-15.6c-0.1-8.5,7.1-16,15.7-16.1
		C212-0.1,219.2,7,219.3,15.7z"/>
	<linearGradient id="SVGID_4_" gradientUnits="userSpaceOnUse" x1="200.098" y1="475.3306" x2="80.3139" y2="112.0293">
		<stop  offset="0" style="stop-color:#147688"/>
		<stop  offset="0.4691" style="stop-color:#2F8841;stop-opacity:0.9515"/>
		<stop  offset="1" style="stop-color:#C2AB2F"/>
	</linearGradient>
	<path fill="url(#SVGID_4_)" d="M331.5,422.2c-99.5,0-199.1,0-299.9,0c1.9-4.4,3.3-8.2,5.2-11.8c19.6-35.9,39.3-71.8,59-107.7
		c2.4-4.4,4.9-8.7,7.1-13.2c1.2-2.5,2.5-3.1,5.4-2.5c11.5,2.6,23,5.2,34.6,7.1c13.7,2.3,25.8-1.4,35.7-11.3c6-6,11.7-12.3,17.5-18.6
		c9.1-9.8,19.3-18.4,31.2-24.7c1.6-0.8,3.2-1.6,5.4-2.6c33.5,61.5,67.5,122.4,100.5,183.7C332.6,421.2,332,421.7,331.5,422.2z"/>
	<linearGradient id="SVGID_5_" gradientUnits="userSpaceOnUse" x1="284.0663" y1="447.6454" x2="164.2822" y2="84.3441">
		<stop  offset="0" style="stop-color:#147688"/>
		<stop  offset="0.4691" style="stop-color:#2F8841;stop-opacity:0.9515"/>
		<stop  offset="1" style="stop-color:#C2AB2F"/>
	</linearGradient>
	<path fill="url(#SVGID_5_)" d="M184.7,179.7c-18.5-0.1-33.4-15-33.1-33.5c0.2-18.2,15.1-32.8,33.4-32.7
		c18.6,0.1,33.2,14.9,33.1,33.4C217.9,165.2,203.1,179.7,184.7,179.7z"/>
	<linearGradient id="SVGID_6_" gradientUnits="userSpaceOnUse" x1="249.8409" y1="458.9299" x2="130.0567" y2="95.6286">
		<stop  offset="0" style="stop-color:#147688"/>
		<stop  offset="0.4691" style="stop-color:#2F8841;stop-opacity:0.9515"/>
		<stop  offset="1" style="stop-color:#C2AB2F"/>
	</linearGradient>
	<path fill="url(#SVGID_6_)" d="M171.6,197.5c13.1,0,23.5,10.2,23.7,23.2c0.1,13.5-10.2,24.2-23.6,24.5
		c-12.8,0.2-23.9-10.7-24.1-23.6C147.4,208.3,158.1,197.6,171.6,197.5z"/>
</g>
</svg>
