<?xml version="1.0" encoding="utf-8"?>
<!-- Generator: Adobe Illustrator 18.1.1, SVG Export Plug-In . SVG Version: 6.00 Build 0)  -->
<!DOCTYPE svg PUBLIC "-//W3C//DTD SVG 1.1//EN" "http://www.w3.org/Graphics/SVG/1.1/DTD/svg11.dtd">
<svg version="1.1" id="Layer_1" xmlns="http://www.w3.org/2000/svg" xmlns:xlink="http://www.w3.org/1999/xlink" x="0px" y="0px"
	 viewBox="0 0 495.6 323.5" enable-background="new 0 0 495.6 323.5" xml:space="preserve">
<g>
	<g>
		<g enable-background="new    ">
			<g>
				<path fill="#F0A223" d="M164.2-0.3c49.6,0.6,96.5,25.5,127.9,69.2l-118,79.4L137.2,1.8C146.3,0.3,155.3-0.4,164.2-0.3z"/>
			</g>
			<g>
				<polygon fill="#7C5412" points="292.1,68.9 277.9,83.2 159.9,162.6 174.1,148.3 				"/>
			</g>
			<g>
				<polygon fill="#7C5412" points="174.1,148.3 159.9,162.6 123,16.1 137.2,1.8 				"/>
			</g>
			<g>
				<path fill="#5C7B86" d="M280.6,81.6c49.8,69.3,37.3,161-27.8,204.8c-23.7,15.9-51.1,23.5-78.9,23.2
					c-38.1-0.4-77-15.7-107.9-44.9L162.6,161L280.6,81.6z"/>
			</g>
			<g enable-background="new    ">
				<defs>
					<path id="SVGID_1_" enable-background="new    " d="M272.5,270.2l-14.2,14.3c-5.9,5.9-12.5,11.4-19.7,16.3
						c-23.7,15.9-51.1,23.5-78.9,23.2c-38.1-0.4-77-15.7-107.9-44.9l14.2-14.3c30.9,29.1,69.8,44.4,107.9,44.9
						c27.8,0.3,55.3-7.3,78.9-23.2C260,281.6,266.6,276.1,272.5,270.2z"/>
				</defs>
				<clipPath id="SVGID_2_">
					<use xlink:href="#SVGID_1_"  overflow="visible"/>
				</clipPath>
				<g clip-path="url(#SVGID_2_)" enable-background="new    ">
					<path fill="#314248" d="M272.5,270.2l-14.2,14.3c-5.9,5.9-12.5,11.4-19.7,16.3c-23.7,15.9-51.1,23.5-78.9,23.2
						c-38.1-0.4-77-15.7-107.9-44.9l14.2-14.3c30.9,29.1,69.8,44.4,107.9,44.9c27.8,0.3,55.3-7.3,78.9-23.2
						C260,281.6,266.6,276.1,272.5,270.2"/>
				</g>
			</g>
			<g>
				<polygon fill="#304045" points="65.9,264.7 51.7,279 148.4,175.2 162.6,161 				"/>
			</g>
			<g>
				<path fill="#92A9B2" d="M125.7,14.5L162.6,161L65.9,264.7C3.7,206.1-3.5,112.1,49.9,54.8C71,32.2,94.3,19.8,125.7,14.5z"/>
			</g>
			<g enable-background="new    ">
				<defs>
					<path id="SVGID_3_" enable-background="new    " d="M39.3,65.3L53.5,51c-1.2,1.2-2.4,2.5-3.7,3.8
						C-3.5,112.1,3.7,206.1,65.9,264.7L51.7,279c-62.3-58.6-69.4-152.6-16.1-209.9C36.9,67.8,38.1,66.5,39.3,65.3z"/>
				</defs>
				<clipPath id="SVGID_4_">
					<use xlink:href="#SVGID_3_"  overflow="visible"/>
				</clipPath>
				<g clip-path="url(#SVGID_4_)" enable-background="new    ">
					<path fill="#4F5B60" d="M65.9,264.7L51.7,279c-62.3-58.6-69.4-152.6-16.1-209.9c1.2-1.3,2.4-2.6,3.7-3.8L53.5,51
						c-1.2,1.2-2.4,2.5-3.7,3.8C-3.5,112.1,3.7,206.1,65.9,264.7"/>
				</g>
			</g>
		</g>
	</g>
</g>
<g>
	<g>
	</g>
	<g>
	</g>
	<g>
	</g>
</g>
<g>
	<rect x="341.4" y="30.1" fill="#97AFB8" width="15" height="15"/>
	<text transform="matrix(1 0 0 1 364.7822 44.583)" fill="#FFFFFF" font-family="'Muli'" font-size="18">Ultricies Nibh</text>
</g>
<g>
	<rect x="341.4" y="61.8" fill="#5F7F8A" width="15" height="15"/>
	<text transform="matrix(1 0 0 1 364.7822 75.4747)" fill="#FFFFFF" font-family="'Muli'" font-size="18">Pharetra Etiam</text>
</g>
<g>
	<rect x="341.4" y="91.9" fill="#F8A724" width="15" height="15"/>
	<text transform="matrix(1 0 0 1 364.7813 106.3661)" fill="#FFFFFF" font-family="'Muli'" font-size="18">Tortor</text>
</g>
</svg>
