<?xml version="1.0" encoding="utf-8"?>
<!-- Generator: Adobe Illustrator 18.1.1, SVG Export Plug-In . SVG Version: 6.00 Build 0)  -->
<!DOCTYPE svg PUBLIC "-//W3C//DTD SVG 1.1//EN" "http://www.w3.org/Graphics/SVG/1.1/DTD/svg11.dtd">
<svg version="1.1" id="Layer_1" xmlns="http://www.w3.org/2000/svg" xmlns:xlink="http://www.w3.org/1999/xlink" x="0px" y="0px"
	 viewBox="0 0 499.7 111.8" enable-background="new 0 0 499.7 111.8" xml:space="preserve">
<g>
	<g>
		<path fill="#FFFFFF" d="M0,68.2v-8.3l3.4-0.3c1.7-0.2,3-0.8,3-2.9V9L0.5,8.7V0h46.9v17L37,17.7v-4.1c0-1.9-0.2-3.2-3-3.2H18.9V28
			h23.7v10.5H18.9v19.2h16.5c2.7,0,2.9-1.2,2.9-3.3v-5.1l10.5,0.7v18.2H0z"/>
		<path fill="#FFFFFF" d="M93.9,58.4c-3.6,5.1-9.8,8-16.6,8c-10.2,0-15.9-5.6-15.9-17.7V28.1c0-2.2-0.8-2.8-2.6-2.9L55.5,25v-8.4h18
			V46c0,6.3,1,11,7.6,11c7.2,0,11-4.8,11-10.1V28.3c0-2.3-0.6-3.1-2.6-3.1L86.3,25v-8.4h18v49.6c0,16.9-8.5,23.9-23.8,23.9
			c-6.5,0-15-1.2-19.3-3.4V72.5l9.7-0.8v4.9c0,1.9,0.5,3,2.4,3.7c1.9,0.7,4.2,1,7.3,1c9.4,0,13.2-5.7,13.2-15.1V58.4z"/>
		<path fill="#FFFFFF" d="M157.3,29.3c0,15.8-17.1,18.4-29.2,18.5c0.4,6.7,3.9,12.1,12.6,12.1c6,0,10.5-2.8,12.9-4.5l3.9,8.3
			c-1.6,1.4-8.4,5.7-18,5.7c-17.4,0-24.2-10.7-24.2-25.9c0-15.2,8.5-28.5,25.3-28.5C150.6,15.1,157.3,20.2,157.3,29.3z M139.9,23.8
			c-8.2,0-11.9,7.9-12.2,15.5c7.6-0.1,18.3-1.8,18.3-9.7C146,25.7,143.6,23.8,139.9,23.8z"/>
		<path fill="#FFFFFF" d="M189.2,59.9l3.4-0.3c1.7-0.2,3-0.8,3-2.9V9l-5.8-0.3V0h49.5v17l-10.5,0.7v-4.1c0-1.9-0.2-3.2-3-3.2H208
			v18.1h25.2V39H208v20.1l9.1,0.3v8.7h-28V59.9z"/>
		<path fill="#FFFFFF" d="M290.7,56.8c0,2.3,0.6,2.9,2.6,3l3.3,0.2v8.2h-16.3v-5.9l-0.3-0.1c-3.2,4.6-8.4,7.4-14,7.4
			c-14.5,0-20.5-10.2-20.5-24.9c0-18,8.6-29.5,27.1-29.5c3.4,0,10.9,0.8,18.2,3.6V56.8z M278.8,25.3c-1.5-0.7-4.7-1.3-7.9-1.3
			c-9.7,0-13,9.1-13,20.2c0,8.5,2,16.6,10.7,16.6c6.4,0,10.2-4.5,10.2-8.9V25.3z"/>
		<path fill="#FFFFFF" d="M329.9,23.5c-4.4,0-7.7,2-7.7,6.1c0,4.7,4.9,6.1,9.7,7.5c8,2.3,16.8,4.8,16.8,16
			c0,10.7-8.8,16.4-19.8,16.4c-6.5,0-14.6-1-18.9-3.2V52.1l9.2-0.7v4.9c0,1.9,0.5,2.8,2.4,3.5c1.9,0.7,4.3,1,6.8,1
			c5.1,0,8.1-1.9,8.1-6.3c0-4.9-4.5-5.8-10-7.3c-7.6-1.9-15.9-4.5-15.9-15.9c0-10.7,9-16.3,19.8-16.3c7,0,13,2.2,17,4.1v12.3
			l-9.2,0.7v-4.3c0-1.9-0.5-2.8-2.4-3.5C333.9,23.7,332.3,23.5,329.9,23.5z"/>
		<path fill="#FFFFFF" d="M378.4,5.7v10.9H392l-1,8.6h-12.6v27c0,6.3,2.5,8.1,6.7,8.1c2.8,0,5.3-1.1,7-2.2l3.1,7.9
			c-3.1,2.2-8.2,3.6-13,3.6c-16,0-15.9-9.8-15.9-17V25.2h-7.3l1-7.5c7.2-0.6,9.6-6.1,11.8-12H378.4z"/>
		<path fill="#FFFFFF" d="M445.5,29.3c0,15.8-17.1,18.4-29.2,18.5c0.4,6.7,3.9,12.1,12.6,12.1c6,0,10.5-2.8,12.9-4.5l3.9,8.3
			c-1.6,1.4-8.4,5.7-18,5.7c-17.4,0-24.2-10.7-24.2-25.9c0-15.2,8.5-28.5,25.3-28.5C438.8,15.1,445.5,20.2,445.5,29.3z M428.1,23.8
			c-8.2,0-11.9,7.9-12.2,15.5c7.6-0.1,18.3-1.8,18.3-9.7C434.2,25.7,431.7,23.8,428.1,23.8z"/>
		<path fill="#FFFFFF" d="M465.2,28.3c0-2.3-0.6-3-2.6-3.1l-4.3-0.3v-8.3h17.3v7.7c2.4-5.1,7.8-9.2,14.6-9.2c3.4,0,6.5,0.6,9.8,2.3
			v15.3l-9.5,0.7v-4.7c0-1.2-0.2-2.2-1-2.6c-0.9-0.4-1.6-0.5-2.8-0.5c-5.5,0-9.3,4.4-9.3,10.4v23.8l8.9,0.4v8.1h-27.5v-7.8l3.4-0.3
			c1.9-0.2,3-0.8,3-3.4V28.3z"/>
	</g>
	<g>
		<path fill="#FFFFFF" d="M125.6,99.3v7.9H123v-19h5.4c1.2,0,2.2,0.1,3.1,0.4c0.9,0.2,1.6,0.6,2.2,1.1c0.6,0.5,1,1,1.3,1.7
			s0.4,1.4,0.4,2.2c0,0.7-0.1,1.3-0.3,1.9c-0.2,0.6-0.5,1.1-0.9,1.6c-0.4,0.5-0.9,0.9-1.5,1.2c-0.6,0.3-1.2,0.6-2,0.7
			c0.3,0.2,0.6,0.5,0.8,0.8l5.5,7.5h-2.3c-0.5,0-0.8-0.2-1-0.5l-4.9-6.8c-0.2-0.2-0.3-0.4-0.5-0.5c-0.2-0.1-0.4-0.1-0.8-0.1H125.6z
			 M125.6,97.4h2.7c0.8,0,1.4-0.1,2-0.3c0.6-0.2,1-0.4,1.4-0.8c0.4-0.3,0.7-0.7,0.9-1.2c0.2-0.5,0.3-1,0.3-1.5c0-1.1-0.4-2-1.1-2.6
			c-0.7-0.6-1.9-0.9-3.3-0.9h-2.8V97.4z"/>
		<path fill="#FFFFFF" d="M146.9,93.6c0.8,0,1.5,0.1,2.2,0.4c0.7,0.3,1.3,0.7,1.8,1.2c0.5,0.5,0.9,1.1,1.2,1.9
			c0.3,0.7,0.4,1.6,0.4,2.6c0,0.4,0,0.6-0.1,0.7c-0.1,0.1-0.2,0.2-0.5,0.2H143c0,0.8,0.1,1.6,0.3,2.2c0.2,0.6,0.5,1.2,0.9,1.6
			c0.4,0.4,0.8,0.7,1.3,0.9c0.5,0.2,1.1,0.3,1.7,0.3c0.6,0,1.1-0.1,1.5-0.2c0.4-0.1,0.8-0.3,1.1-0.4c0.3-0.2,0.6-0.3,0.8-0.4
			c0.2-0.1,0.4-0.2,0.5-0.2c0.2,0,0.3,0.1,0.5,0.2l0.7,0.9c-0.3,0.4-0.6,0.7-1,0.9c-0.4,0.3-0.8,0.5-1.3,0.6
			c-0.5,0.2-0.9,0.3-1.4,0.4c-0.5,0.1-1,0.1-1.5,0.1c-0.9,0-1.8-0.2-2.6-0.5c-0.8-0.3-1.5-0.8-2-1.4c-0.6-0.6-1-1.4-1.3-2.2
			c-0.3-0.9-0.5-1.9-0.5-3.1c0-0.9,0.1-1.8,0.4-2.6c0.3-0.8,0.7-1.5,1.2-2.1c0.5-0.6,1.2-1.1,2-1.4S145.9,93.6,146.9,93.6z
			 M147,95.3c-1.1,0-2,0.3-2.7,1c-0.7,0.7-1.1,1.6-1.2,2.7h7.3c0-0.5-0.1-1-0.2-1.5c-0.2-0.5-0.4-0.8-0.7-1.2
			c-0.3-0.3-0.6-0.6-1.1-0.8C148,95.4,147.5,95.3,147,95.3z"/>
		<path fill="#FFFFFF" d="M167.5,107.2h-1c-0.2,0-0.4,0-0.6-0.1c-0.1-0.1-0.2-0.2-0.3-0.5l-0.3-1.2c-0.4,0.3-0.7,0.6-1,0.9
			c-0.3,0.3-0.7,0.5-1.1,0.6c-0.4,0.2-0.8,0.3-1.2,0.4c-0.4,0.1-0.9,0.1-1.4,0.1c-0.5,0-1-0.1-1.5-0.2c-0.5-0.1-0.9-0.4-1.2-0.7
			s-0.6-0.7-0.8-1.1c-0.2-0.4-0.3-1-0.3-1.6c0-0.5,0.1-1,0.4-1.5c0.3-0.5,0.8-0.9,1.4-1.3c0.6-0.4,1.5-0.7,2.6-0.9
			c1.1-0.2,2.3-0.4,3.9-0.4v-1.1c0-1-0.2-1.8-0.7-2.4c-0.4-0.5-1.1-0.8-2-0.8c-0.6,0-1.1,0.1-1.5,0.2s-0.7,0.3-1,0.5
			c-0.3,0.2-0.5,0.3-0.7,0.5c-0.2,0.1-0.4,0.2-0.6,0.2c-0.2,0-0.3,0-0.4-0.1c-0.1-0.1-0.2-0.2-0.3-0.3l-0.4-0.8
			c0.7-0.7,1.5-1.3,2.4-1.6c0.9-0.4,1.8-0.5,2.9-0.5c0.8,0,1.4,0.1,2,0.4c0.6,0.2,1.1,0.6,1.5,1c0.4,0.4,0.7,1,0.9,1.6
			c0.2,0.6,0.3,1.3,0.3,2.1V107.2z M161.3,105.8c0.4,0,0.8,0,1.1-0.1c0.3-0.1,0.7-0.2,1-0.4c0.3-0.2,0.6-0.3,0.9-0.6
			c0.3-0.2,0.5-0.5,0.8-0.8v-2.8c-1.1,0-2,0.1-2.8,0.2c-0.8,0.1-1.4,0.3-1.9,0.5c-0.5,0.2-0.8,0.5-1,0.8c-0.2,0.3-0.3,0.6-0.3,1
			c0,0.4,0.1,0.7,0.2,0.9c0.1,0.3,0.3,0.5,0.5,0.6c0.2,0.2,0.4,0.3,0.7,0.4C160.7,105.8,161,105.8,161.3,105.8z"/>
		<path fill="#FFFFFF" d="M175.8,87.7v19.5h-2.4V87.7H175.8z"/>
		<path fill="#FFFFFF" d="M199.4,91.2c-0.1,0.1-0.2,0.2-0.3,0.3c-0.1,0.1-0.2,0.1-0.3,0.1c-0.2,0-0.3-0.1-0.5-0.2
			c-0.2-0.2-0.5-0.3-0.8-0.5c-0.3-0.2-0.7-0.3-1.1-0.5c-0.4-0.2-0.9-0.2-1.6-0.2c-0.6,0-1.1,0.1-1.5,0.2c-0.4,0.2-0.8,0.4-1.1,0.6
			s-0.5,0.6-0.7,0.9c-0.2,0.4-0.2,0.7-0.2,1.2c0,0.5,0.1,1,0.4,1.3c0.3,0.3,0.6,0.6,1,0.9c0.4,0.2,0.9,0.5,1.5,0.6
			c0.5,0.2,1.1,0.4,1.7,0.6c0.6,0.2,1.1,0.4,1.7,0.7c0.5,0.2,1,0.6,1.5,0.9c0.4,0.4,0.8,0.8,1,1.4c0.3,0.5,0.4,1.2,0.4,2
			c0,0.8-0.1,1.6-0.4,2.3c-0.3,0.7-0.7,1.4-1.2,1.9c-0.5,0.5-1.2,1-2,1.3c-0.8,0.3-1.7,0.5-2.7,0.5c-1.2,0-2.3-0.2-3.4-0.7
			c-1-0.4-1.9-1-2.6-1.8l0.7-1.2c0.1-0.1,0.2-0.2,0.3-0.2c0.1-0.1,0.2-0.1,0.3-0.1c0.2,0,0.4,0.1,0.6,0.3c0.2,0.2,0.5,0.4,0.9,0.7
			s0.8,0.5,1.3,0.7c0.5,0.2,1.1,0.3,1.9,0.3c0.6,0,1.2-0.1,1.6-0.3c0.5-0.2,0.9-0.4,1.2-0.7c0.3-0.3,0.6-0.7,0.8-1.1
			c0.2-0.4,0.3-0.9,0.3-1.4c0-0.6-0.1-1-0.4-1.4c-0.3-0.4-0.6-0.7-1-0.9c-0.4-0.2-0.9-0.5-1.5-0.6c-0.5-0.2-1.1-0.3-1.7-0.5
			c-0.6-0.2-1.1-0.4-1.7-0.6c-0.5-0.2-1-0.5-1.5-0.9c-0.4-0.4-0.8-0.9-1-1.4c-0.3-0.6-0.4-1.3-0.4-2.1c0-0.7,0.1-1.3,0.4-1.9
			c0.3-0.6,0.6-1.2,1.1-1.7c0.5-0.5,1.1-0.9,1.8-1.2c0.7-0.3,1.6-0.4,2.5-0.4c1.1,0,2,0.2,2.9,0.5s1.6,0.8,2.3,1.5L199.4,91.2z"/>
		<path fill="#FFFFFF" d="M205.5,107.2V87.7h2.4v7.9c0.6-0.6,1.2-1.1,1.9-1.5c0.7-0.4,1.5-0.5,2.4-0.5c0.7,0,1.4,0.1,1.9,0.4
			c0.6,0.2,1,0.6,1.4,1c0.4,0.4,0.7,1,0.9,1.6c0.2,0.6,0.3,1.3,0.3,2.1v8.6h-2.4v-8.6c0-1-0.2-1.8-0.7-2.4c-0.5-0.6-1.2-0.8-2.1-0.8
			c-0.7,0-1.4,0.2-2,0.5c-0.6,0.3-1.2,0.8-1.7,1.4v9.9H205.5z"/>
		<path fill="#FFFFFF" d="M227.8,93.6c1,0,1.9,0.2,2.7,0.5c0.8,0.3,1.5,0.8,2,1.4s1,1.3,1.3,2.2c0.3,0.9,0.4,1.8,0.4,2.9
			c0,1.1-0.1,2-0.4,2.9c-0.3,0.8-0.7,1.6-1.3,2.2c-0.6,0.6-1.2,1.1-2,1.4c-0.8,0.3-1.7,0.5-2.7,0.5c-1,0-1.9-0.2-2.7-0.5
			c-0.8-0.3-1.5-0.8-2-1.4c-0.6-0.6-1-1.3-1.3-2.2c-0.3-0.8-0.5-1.8-0.5-2.9c0-1.1,0.2-2,0.5-2.9c0.3-0.9,0.7-1.6,1.3-2.2
			c0.6-0.6,1.2-1.1,2-1.4C225.9,93.8,226.8,93.6,227.8,93.6z M227.8,105.6c1.3,0,2.3-0.4,3-1.3c0.7-0.9,1-2.1,1-3.7
			c0-1.6-0.3-2.8-1-3.7s-1.6-1.3-3-1.3c-0.7,0-1.3,0.1-1.7,0.3c-0.5,0.2-0.9,0.6-1.2,1c-0.3,0.4-0.6,1-0.7,1.6
			c-0.2,0.6-0.2,1.3-0.2,2.1s0.1,1.5,0.2,2.1c0.2,0.6,0.4,1.2,0.7,1.6c0.3,0.4,0.7,0.8,1.2,1C226.5,105.5,227.1,105.6,227.8,105.6z"
			/>
		<path fill="#FFFFFF" d="M239.2,111.8v-18h1.4c0.3,0,0.5,0.2,0.6,0.5l0.2,1.6c0.6-0.7,1.2-1.3,2-1.7c0.7-0.4,1.6-0.6,2.6-0.6
			c0.8,0,1.5,0.1,2.1,0.4c0.6,0.3,1.2,0.7,1.6,1.3c0.4,0.6,0.8,1.3,1,2.2c0.2,0.9,0.4,1.8,0.4,3c0,1-0.1,1.9-0.4,2.8
			c-0.3,0.9-0.6,1.6-1.1,2.2c-0.5,0.6-1.1,1.1-1.8,1.5c-0.7,0.4-1.5,0.5-2.4,0.5c-0.8,0-1.5-0.1-2.1-0.4c-0.6-0.3-1.1-0.7-1.6-1.2
			v5.9H239.2z M245.2,95.5c-0.8,0-1.4,0.2-2,0.5c-0.6,0.4-1.1,0.9-1.6,1.5v6.5c0.4,0.6,0.9,1,1.4,1.2c0.5,0.2,1.1,0.4,1.7,0.4
			c1.2,0,2.2-0.4,2.9-1.3c0.7-0.9,1-2.2,1-3.8c0-0.9-0.1-1.6-0.2-2.3c-0.2-0.6-0.4-1.1-0.7-1.5c-0.3-0.4-0.6-0.7-1.1-0.9
			C246.2,95.6,245.7,95.5,245.2,95.5z"/>
		<path fill="#FFFFFF" d="M256,111.8v-18h1.4c0.3,0,0.5,0.2,0.6,0.5l0.2,1.6c0.6-0.7,1.2-1.3,2-1.7c0.7-0.4,1.6-0.6,2.6-0.6
			c0.8,0,1.5,0.1,2.1,0.4c0.6,0.3,1.2,0.7,1.6,1.3c0.4,0.6,0.8,1.3,1,2.2c0.2,0.9,0.4,1.8,0.4,3c0,1-0.1,1.9-0.4,2.8
			c-0.3,0.9-0.6,1.6-1.1,2.2c-0.5,0.6-1.1,1.1-1.8,1.5c-0.7,0.4-1.5,0.5-2.4,0.5c-0.8,0-1.5-0.1-2.1-0.4c-0.6-0.3-1.1-0.7-1.6-1.2
			v5.9H256z M261.9,95.5c-0.8,0-1.4,0.2-2,0.5c-0.6,0.4-1.1,0.9-1.6,1.5v6.5c0.4,0.6,0.9,1,1.4,1.2c0.5,0.2,1.1,0.4,1.7,0.4
			c1.2,0,2.2-0.4,2.9-1.3c0.7-0.9,1-2.2,1-3.8c0-0.9-0.1-1.6-0.2-2.3c-0.2-0.6-0.4-1.1-0.7-1.5c-0.3-0.4-0.6-0.7-1.1-0.9
			C263,95.6,262.5,95.5,261.9,95.5z"/>
		<path fill="#FFFFFF" d="M278,93.6c0.8,0,1.5,0.1,2.2,0.4c0.7,0.3,1.3,0.7,1.8,1.2c0.5,0.5,0.9,1.1,1.2,1.9
			c0.3,0.7,0.4,1.6,0.4,2.6c0,0.4,0,0.6-0.1,0.7c-0.1,0.1-0.2,0.2-0.5,0.2h-8.9c0,0.8,0.1,1.6,0.3,2.2c0.2,0.6,0.5,1.2,0.9,1.6
			c0.4,0.4,0.8,0.7,1.3,0.9c0.5,0.2,1.1,0.3,1.7,0.3c0.6,0,1.1-0.1,1.5-0.2c0.4-0.1,0.8-0.3,1.1-0.4c0.3-0.2,0.6-0.3,0.8-0.4
			c0.2-0.1,0.4-0.2,0.5-0.2c0.2,0,0.3,0.1,0.5,0.2l0.7,0.9c-0.3,0.4-0.6,0.7-1,0.9c-0.4,0.3-0.8,0.5-1.3,0.6s-0.9,0.3-1.4,0.4
			c-0.5,0.1-1,0.1-1.5,0.1c-0.9,0-1.8-0.2-2.6-0.5c-0.8-0.3-1.5-0.8-2-1.4c-0.6-0.6-1-1.4-1.3-2.2c-0.3-0.9-0.5-1.9-0.5-3.1
			c0-0.9,0.1-1.8,0.4-2.6c0.3-0.8,0.7-1.5,1.2-2.1c0.5-0.6,1.2-1.1,2-1.4S277.1,93.6,278,93.6z M278.1,95.3c-1.1,0-2,0.3-2.7,1
			c-0.7,0.7-1.1,1.6-1.2,2.7h7.3c0-0.5-0.1-1-0.2-1.5c-0.2-0.5-0.4-0.8-0.7-1.2c-0.3-0.3-0.6-0.6-1.1-0.8
			C279.1,95.4,278.6,95.3,278.1,95.3z"/>
		<path fill="#FFFFFF" d="M288.7,107.2V93.8h1.4c0.3,0,0.4,0,0.5,0.1c0.1,0.1,0.2,0.3,0.2,0.5l0.2,2.1c0.5-0.9,1-1.7,1.7-2.2
			c0.7-0.5,1.5-0.8,2.4-0.8c0.4,0,0.7,0,1,0.1c0.3,0.1,0.6,0.2,0.8,0.4l-0.3,1.8c-0.1,0.2-0.2,0.3-0.4,0.3c-0.1,0-0.3,0-0.6-0.1
			c-0.3-0.1-0.6-0.1-1.1-0.1c-0.8,0-1.5,0.2-2.1,0.7c-0.6,0.5-1,1.2-1.4,2.1v8.6H288.7z"/>
		<path fill="#FFFFFF" d="M309.2,96c-0.1,0.2-0.3,0.3-0.5,0.3c-0.1,0-0.3,0-0.5-0.1c-0.2-0.1-0.4-0.2-0.6-0.3
			c-0.2-0.1-0.5-0.2-0.9-0.3c-0.3-0.1-0.7-0.2-1.2-0.2c-0.4,0-0.8,0.1-1.1,0.2c-0.3,0.1-0.6,0.2-0.8,0.4c-0.2,0.2-0.4,0.4-0.5,0.6
			c-0.1,0.2-0.2,0.5-0.2,0.8c0,0.3,0.1,0.6,0.3,0.9c0.2,0.2,0.5,0.4,0.8,0.6c0.3,0.2,0.7,0.3,1.1,0.4c0.4,0.1,0.8,0.3,1.3,0.4
			s0.9,0.3,1.3,0.5c0.4,0.2,0.8,0.4,1.1,0.7c0.3,0.3,0.6,0.6,0.8,1s0.3,0.8,0.3,1.4c0,0.6-0.1,1.2-0.3,1.7c-0.2,0.5-0.5,1-1,1.4
			c-0.4,0.4-1,0.7-1.6,0.9c-0.6,0.2-1.4,0.3-2.2,0.3c-0.9,0-1.8-0.2-2.5-0.5c-0.8-0.3-1.4-0.7-1.9-1.2l0.6-0.9
			c0.1-0.1,0.2-0.2,0.3-0.3c0.1-0.1,0.2-0.1,0.4-0.1c0.2,0,0.3,0.1,0.5,0.2c0.2,0.1,0.4,0.3,0.6,0.4c0.3,0.2,0.6,0.3,0.9,0.4
			c0.4,0.1,0.8,0.2,1.3,0.2c0.5,0,0.9-0.1,1.2-0.2c0.3-0.1,0.6-0.3,0.9-0.5c0.2-0.2,0.4-0.4,0.5-0.7c0.1-0.3,0.2-0.5,0.2-0.8
			c0-0.4-0.1-0.7-0.3-0.9c-0.2-0.2-0.5-0.5-0.8-0.6c-0.3-0.2-0.7-0.3-1.1-0.5c-0.4-0.1-0.8-0.3-1.3-0.4c-0.4-0.1-0.9-0.3-1.3-0.5
			c-0.4-0.2-0.8-0.4-1.1-0.7c-0.3-0.3-0.6-0.6-0.8-1c-0.2-0.4-0.3-0.9-0.3-1.5c0-0.5,0.1-1,0.3-1.5c0.2-0.5,0.5-0.9,0.9-1.2
			c0.4-0.4,0.9-0.6,1.5-0.9c0.6-0.2,1.3-0.3,2-0.3c0.9,0,1.7,0.1,2.4,0.4c0.7,0.3,1.3,0.7,1.8,1.1L309.2,96z"/>
		<path fill="#FFFFFF" d="M314.5,105.6c0-0.2,0-0.4,0.1-0.6c0.1-0.2,0.2-0.3,0.3-0.5c0.1-0.1,0.3-0.2,0.5-0.3
			c0.2-0.1,0.4-0.1,0.6-0.1c0.3,0,0.5,0,0.7,0.1c0.2,0.1,0.4,0.2,0.5,0.4c0.1,0.2,0.2,0.4,0.3,0.6c0.1,0.2,0.1,0.5,0.1,0.7
			c0,0.4-0.1,0.8-0.2,1.2c-0.1,0.4-0.3,0.9-0.5,1.3c-0.2,0.4-0.5,0.8-0.8,1.2c-0.3,0.4-0.7,0.8-1.1,1.1l-0.4-0.4
			c-0.1-0.1-0.2-0.2-0.2-0.4c0-0.1,0.1-0.2,0.2-0.4c0.1-0.1,0.2-0.2,0.3-0.4c0.1-0.2,0.3-0.4,0.4-0.6c0.1-0.2,0.3-0.4,0.4-0.7
			c0.1-0.3,0.2-0.5,0.3-0.8H316c-0.2,0-0.4,0-0.6-0.1c-0.2-0.1-0.3-0.2-0.5-0.3c-0.1-0.1-0.2-0.3-0.3-0.5
			C314.5,106.1,314.5,105.8,314.5,105.6z"/>
		<path fill="#FFFFFF" d="M333.3,99.3v7.9h-2.6v-19h5.4c1.2,0,2.2,0.1,3.1,0.4c0.9,0.2,1.6,0.6,2.2,1.1c0.6,0.5,1,1,1.3,1.7
			c0.3,0.6,0.4,1.4,0.4,2.2c0,0.7-0.1,1.3-0.3,1.9c-0.2,0.6-0.5,1.1-0.9,1.6c-0.4,0.5-0.9,0.9-1.5,1.2c-0.6,0.3-1.2,0.6-2,0.7
			c0.3,0.2,0.6,0.5,0.8,0.8l5.5,7.5h-2.3c-0.5,0-0.8-0.2-1-0.5l-4.9-6.8c-0.2-0.2-0.3-0.4-0.5-0.5c-0.2-0.1-0.4-0.1-0.8-0.1H333.3z
			 M333.3,97.4h2.7c0.8,0,1.4-0.1,2-0.3c0.6-0.2,1-0.4,1.4-0.8c0.4-0.3,0.7-0.7,0.9-1.2c0.2-0.5,0.3-1,0.3-1.5c0-1.1-0.4-2-1.1-2.6
			c-0.7-0.6-1.9-0.9-3.3-0.9h-2.8V97.4z"/>
		<path fill="#FFFFFF" d="M354.6,93.6c0.8,0,1.5,0.1,2.2,0.4c0.7,0.3,1.3,0.7,1.8,1.2c0.5,0.5,0.9,1.1,1.2,1.9
			c0.3,0.7,0.4,1.6,0.4,2.6c0,0.4,0,0.6-0.1,0.7c-0.1,0.1-0.2,0.2-0.5,0.2h-8.9c0,0.8,0.1,1.6,0.3,2.2c0.2,0.6,0.5,1.2,0.9,1.6
			c0.4,0.4,0.8,0.7,1.3,0.9c0.5,0.2,1.1,0.3,1.7,0.3c0.6,0,1.1-0.1,1.5-0.2c0.4-0.1,0.8-0.3,1.1-0.4c0.3-0.2,0.6-0.3,0.8-0.4
			c0.2-0.1,0.4-0.2,0.5-0.2c0.2,0,0.3,0.1,0.5,0.2l0.7,0.9c-0.3,0.4-0.6,0.7-1,0.9c-0.4,0.3-0.8,0.5-1.3,0.6s-0.9,0.3-1.4,0.4
			c-0.5,0.1-1,0.1-1.5,0.1c-0.9,0-1.8-0.2-2.6-0.5c-0.8-0.3-1.5-0.8-2-1.4c-0.6-0.6-1-1.4-1.3-2.2c-0.3-0.9-0.5-1.9-0.5-3.1
			c0-0.9,0.1-1.8,0.4-2.6c0.3-0.8,0.7-1.5,1.2-2.1c0.5-0.6,1.2-1.1,2-1.4S353.7,93.6,354.6,93.6z M354.7,95.3c-1.1,0-2,0.3-2.7,1
			c-0.7,0.7-1.1,1.6-1.2,2.7h7.3c0-0.5-0.1-1-0.2-1.5c-0.2-0.5-0.4-0.8-0.7-1.2c-0.3-0.3-0.6-0.6-1.1-0.8
			C355.7,95.4,355.2,95.3,354.7,95.3z"/>
		<path fill="#FFFFFF" d="M375.2,107.2h-1c-0.2,0-0.4,0-0.6-0.1c-0.1-0.1-0.2-0.2-0.3-0.5l-0.3-1.2c-0.4,0.3-0.7,0.6-1,0.9
			c-0.3,0.3-0.7,0.5-1.1,0.6c-0.4,0.2-0.8,0.3-1.2,0.4c-0.4,0.1-0.9,0.1-1.4,0.1c-0.5,0-1-0.1-1.5-0.2c-0.5-0.1-0.9-0.4-1.2-0.7
			s-0.6-0.7-0.8-1.1c-0.2-0.4-0.3-1-0.3-1.6c0-0.5,0.1-1,0.4-1.5c0.3-0.5,0.8-0.9,1.4-1.3c0.6-0.4,1.5-0.7,2.6-0.9
			c1.1-0.2,2.3-0.4,3.9-0.4v-1.1c0-1-0.2-1.8-0.7-2.4c-0.4-0.5-1.1-0.8-2-0.8c-0.6,0-1.1,0.1-1.5,0.2s-0.7,0.3-1,0.5
			c-0.3,0.2-0.5,0.3-0.7,0.5c-0.2,0.1-0.4,0.2-0.6,0.2c-0.2,0-0.3,0-0.4-0.1c-0.1-0.1-0.2-0.2-0.3-0.3l-0.4-0.8
			c0.7-0.7,1.5-1.3,2.4-1.6c0.9-0.4,1.8-0.5,2.9-0.5c0.8,0,1.4,0.1,2,0.4c0.6,0.2,1.1,0.6,1.5,1c0.4,0.4,0.7,1,0.9,1.6
			c0.2,0.6,0.3,1.3,0.3,2.1V107.2z M369.1,105.8c0.4,0,0.8,0,1.1-0.1c0.3-0.1,0.7-0.2,1-0.4c0.3-0.2,0.6-0.3,0.9-0.6
			c0.3-0.2,0.5-0.5,0.8-0.8v-2.8c-1.1,0-2,0.1-2.8,0.2c-0.8,0.1-1.4,0.3-1.9,0.5c-0.5,0.2-0.8,0.5-1,0.8c-0.2,0.3-0.3,0.6-0.3,1
			c0,0.4,0.1,0.7,0.2,0.9c0.1,0.3,0.3,0.5,0.5,0.6c0.2,0.2,0.4,0.3,0.7,0.4C368.5,105.8,368.8,105.8,369.1,105.8z"/>
		<path fill="#FFFFFF" d="M383.5,87.7v19.5h-2.4V87.7H383.5z"/>
		<path fill="#FFFFFF" d="M400.5,107.2h-2.6v-19h2.6V107.2z"/>
		<path fill="#FFFFFF" d="M407.3,107.2V93.8h1.4c0.3,0,0.5,0.2,0.6,0.5l0.2,1.5c0.6-0.6,1.2-1.2,2-1.6c0.7-0.4,1.6-0.6,2.5-0.6
			c0.7,0,1.4,0.1,1.9,0.4c0.6,0.2,1,0.6,1.4,1c0.4,0.4,0.7,1,0.9,1.6c0.2,0.6,0.3,1.3,0.3,2.1v8.6h-2.4v-8.6c0-1-0.2-1.8-0.7-2.4
			c-0.5-0.6-1.2-0.8-2.1-0.8c-0.7,0-1.4,0.2-2,0.5c-0.6,0.3-1.2,0.8-1.7,1.4v9.9H407.3z"/>
		<path fill="#FFFFFF" d="M431.9,96c-0.1,0.2-0.3,0.3-0.5,0.3c-0.1,0-0.3,0-0.5-0.1c-0.2-0.1-0.4-0.2-0.6-0.3
			c-0.2-0.1-0.5-0.2-0.9-0.3c-0.3-0.1-0.7-0.2-1.2-0.2c-0.4,0-0.8,0.1-1.1,0.2c-0.3,0.1-0.6,0.2-0.8,0.4c-0.2,0.2-0.4,0.4-0.5,0.6
			c-0.1,0.2-0.2,0.5-0.2,0.8c0,0.3,0.1,0.6,0.3,0.9c0.2,0.2,0.5,0.4,0.8,0.6c0.3,0.2,0.7,0.3,1.1,0.4s0.8,0.3,1.3,0.4
			s0.9,0.3,1.3,0.5c0.4,0.2,0.8,0.4,1.1,0.7c0.3,0.3,0.6,0.6,0.8,1s0.3,0.8,0.3,1.4c0,0.6-0.1,1.2-0.3,1.7c-0.2,0.5-0.5,1-1,1.4
			c-0.4,0.4-1,0.7-1.6,0.9c-0.6,0.2-1.4,0.3-2.2,0.3c-0.9,0-1.8-0.2-2.5-0.5c-0.8-0.3-1.4-0.7-1.9-1.2l0.6-0.9
			c0.1-0.1,0.2-0.2,0.3-0.3c0.1-0.1,0.2-0.1,0.4-0.1c0.2,0,0.3,0.1,0.5,0.2c0.2,0.1,0.4,0.3,0.6,0.4c0.3,0.2,0.6,0.3,0.9,0.4
			c0.4,0.1,0.8,0.2,1.3,0.2c0.5,0,0.9-0.1,1.2-0.2c0.3-0.1,0.6-0.3,0.9-0.5c0.2-0.2,0.4-0.4,0.5-0.7c0.1-0.3,0.2-0.5,0.2-0.8
			c0-0.4-0.1-0.7-0.3-0.9c-0.2-0.2-0.5-0.5-0.8-0.6c-0.3-0.2-0.7-0.3-1.1-0.5c-0.4-0.1-0.8-0.3-1.3-0.4c-0.4-0.1-0.9-0.3-1.3-0.5
			c-0.4-0.2-0.8-0.4-1.1-0.7c-0.3-0.3-0.6-0.6-0.8-1c-0.2-0.4-0.3-0.9-0.3-1.5c0-0.5,0.1-1,0.3-1.5c0.2-0.5,0.5-0.9,0.9-1.2
			c0.4-0.4,0.9-0.6,1.5-0.9c0.6-0.2,1.3-0.3,2-0.3c0.9,0,1.7,0.1,2.4,0.4c0.7,0.3,1.3,0.7,1.8,1.1L431.9,96z"/>
		<path fill="#FFFFFF" d="M440.9,89.6c0,0.2,0,0.4-0.1,0.6c-0.1,0.2-0.2,0.4-0.4,0.5c-0.2,0.2-0.3,0.3-0.5,0.4
			c-0.2,0.1-0.4,0.1-0.6,0.1c-0.2,0-0.4,0-0.6-0.1c-0.2-0.1-0.4-0.2-0.5-0.4c-0.2-0.2-0.3-0.3-0.4-0.5c-0.1-0.2-0.1-0.4-0.1-0.6
			c0-0.2,0-0.4,0.1-0.7c0.1-0.2,0.2-0.4,0.4-0.5c0.2-0.2,0.3-0.3,0.5-0.4c0.2-0.1,0.4-0.1,0.6-0.1c0.2,0,0.4,0,0.6,0.1
			c0.2,0.1,0.4,0.2,0.5,0.4c0.2,0.2,0.3,0.3,0.4,0.5C440.9,89.1,440.9,89.4,440.9,89.6z M440.4,93.8v13.4h-2.4V93.8H440.4z"/>
		<path fill="#FFFFFF" d="M451.2,93.6c0.6,0,1.1,0.1,1.6,0.2c0.5,0.1,1,0.3,1.4,0.6h3.6v0.9c0,0.3-0.2,0.5-0.6,0.6l-1.5,0.2
			c0.3,0.6,0.5,1.2,0.5,1.9c0,0.7-0.1,1.2-0.4,1.8c-0.3,0.5-0.6,1-1,1.4c-0.4,0.4-1,0.7-1.6,0.9c-0.6,0.2-1.3,0.3-2,0.3
			c-0.6,0-1.2-0.1-1.8-0.2c-0.3,0.2-0.5,0.4-0.6,0.6s-0.2,0.4-0.2,0.6c0,0.3,0.1,0.6,0.4,0.7c0.3,0.2,0.6,0.3,1,0.4
			c0.4,0.1,0.9,0.1,1.4,0.1s1.1,0,1.7,0c0.6,0,1.1,0,1.7,0.1c0.5,0.1,1,0.3,1.4,0.5c0.4,0.2,0.8,0.5,1,0.9c0.3,0.4,0.4,0.9,0.4,1.5
			c0,0.6-0.1,1.1-0.4,1.7c-0.3,0.5-0.7,1-1.2,1.5c-0.5,0.4-1.2,0.8-2,1c-0.8,0.3-1.7,0.4-2.6,0.4c-1,0-1.8-0.1-2.6-0.3
			c-0.7-0.2-1.4-0.5-1.8-0.8c-0.5-0.3-0.9-0.7-1.1-1.1c-0.2-0.4-0.4-0.9-0.4-1.3c0-0.7,0.2-1.2,0.6-1.7c0.4-0.5,1-0.8,1.7-1.1
			c-0.4-0.2-0.7-0.4-0.9-0.7c-0.2-0.3-0.3-0.7-0.3-1.2c0-0.2,0-0.4,0.1-0.6c0.1-0.2,0.2-0.4,0.3-0.6s0.3-0.4,0.5-0.6
			c0.2-0.2,0.5-0.3,0.7-0.5c-0.7-0.4-1.2-0.9-1.6-1.5c-0.4-0.6-0.6-1.3-0.6-2.2c0-0.7,0.1-1.2,0.4-1.8s0.6-1,1.1-1.4
			c0.5-0.4,1-0.7,1.6-0.9C449.8,93.7,450.5,93.6,451.2,93.6z M455.4,107.9c0-0.3-0.1-0.6-0.3-0.8c-0.2-0.2-0.4-0.4-0.8-0.5
			c-0.3-0.1-0.7-0.2-1.1-0.3c-0.4-0.1-0.9-0.1-1.3-0.1c-0.5,0-0.9,0-1.4,0c-0.5,0-0.9-0.1-1.4-0.2c-0.5,0.2-0.9,0.5-1.2,0.9
			s-0.5,0.8-0.5,1.2c0,0.3,0.1,0.6,0.2,0.8c0.2,0.3,0.4,0.5,0.7,0.7c0.3,0.2,0.7,0.3,1.2,0.5s1,0.2,1.7,0.2c0.6,0,1.2-0.1,1.7-0.2
			c0.5-0.1,0.9-0.3,1.3-0.5c0.3-0.2,0.6-0.5,0.8-0.8C455.3,108.6,455.4,108.3,455.4,107.9z M451.2,100.7c0.5,0,0.9-0.1,1.3-0.2
			c0.4-0.1,0.7-0.3,0.9-0.6s0.4-0.5,0.6-0.9c0.1-0.3,0.2-0.7,0.2-1.1c0-0.8-0.3-1.5-0.7-2c-0.5-0.5-1.2-0.7-2.2-0.7
			c-0.9,0-1.7,0.2-2.2,0.7c-0.5,0.5-0.7,1.1-0.7,2c0,0.4,0.1,0.8,0.2,1.1c0.1,0.3,0.3,0.6,0.6,0.9c0.2,0.2,0.6,0.4,0.9,0.6
			C450.3,100.6,450.8,100.7,451.2,100.7z"/>
		<path fill="#FFFFFF" d="M462.4,107.2V87.7h2.4v7.9c0.6-0.6,1.2-1.1,1.9-1.5c0.7-0.4,1.5-0.5,2.4-0.5c0.7,0,1.4,0.1,1.9,0.4
			s1,0.6,1.4,1c0.4,0.4,0.7,1,0.9,1.6c0.2,0.6,0.3,1.3,0.3,2.1v8.6h-2.4v-8.6c0-1-0.2-1.8-0.7-2.4c-0.5-0.6-1.2-0.8-2.1-0.8
			c-0.7,0-1.4,0.2-2,0.5c-0.6,0.3-1.2,0.8-1.7,1.4v9.9H462.4z"/>
		<path fill="#FFFFFF" d="M483.3,107.4c-1.1,0-1.9-0.3-2.4-0.9c-0.6-0.6-0.9-1.4-0.9-2.6v-8.2h-1.6c-0.1,0-0.3,0-0.4-0.1
			c-0.1-0.1-0.1-0.2-0.1-0.4v-0.9l2.2-0.3l0.5-4.1c0-0.1,0.1-0.2,0.2-0.3c0.1-0.1,0.2-0.1,0.4-0.1h1.2v4.6h3.8v1.7h-3.8v8.1
			c0,0.6,0.1,1,0.4,1.3c0.3,0.3,0.6,0.4,1.1,0.4c0.2,0,0.5,0,0.6-0.1c0.2-0.1,0.3-0.1,0.5-0.2c0.1-0.1,0.2-0.2,0.3-0.2
			c0.1-0.1,0.2-0.1,0.2-0.1c0.1,0,0.2,0.1,0.3,0.2l0.7,1.1c-0.4,0.4-0.9,0.7-1.5,0.9C484.5,107.3,483.9,107.4,483.3,107.4z"/>
		<path fill="#FFFFFF" d="M498.9,96c-0.1,0.2-0.3,0.3-0.5,0.3c-0.1,0-0.3,0-0.5-0.1c-0.2-0.1-0.4-0.2-0.6-0.3
			c-0.2-0.1-0.5-0.2-0.9-0.3c-0.3-0.1-0.7-0.2-1.2-0.2c-0.4,0-0.8,0.1-1.1,0.2c-0.3,0.1-0.6,0.2-0.8,0.4c-0.2,0.2-0.4,0.4-0.5,0.6
			c-0.1,0.2-0.2,0.5-0.2,0.8c0,0.3,0.1,0.6,0.3,0.9c0.2,0.2,0.5,0.4,0.8,0.6c0.3,0.2,0.7,0.3,1.1,0.4c0.4,0.1,0.8,0.3,1.3,0.4
			s0.9,0.3,1.3,0.5c0.4,0.2,0.8,0.4,1.1,0.7c0.3,0.3,0.6,0.6,0.8,1s0.3,0.8,0.3,1.4c0,0.6-0.1,1.2-0.3,1.7c-0.2,0.5-0.5,1-1,1.4
			c-0.4,0.4-1,0.7-1.6,0.9c-0.6,0.2-1.4,0.3-2.2,0.3c-0.9,0-1.8-0.2-2.5-0.5c-0.8-0.3-1.4-0.7-1.9-1.2l0.6-0.9
			c0.1-0.1,0.2-0.2,0.3-0.3c0.1-0.1,0.2-0.1,0.4-0.1c0.2,0,0.3,0.1,0.5,0.2c0.2,0.1,0.4,0.3,0.6,0.4c0.3,0.2,0.6,0.3,0.9,0.4
			c0.4,0.1,0.8,0.2,1.3,0.2c0.5,0,0.9-0.1,1.2-0.2c0.3-0.1,0.6-0.3,0.9-0.5c0.2-0.2,0.4-0.4,0.5-0.7c0.1-0.3,0.2-0.5,0.2-0.8
			c0-0.4-0.1-0.7-0.3-0.9c-0.2-0.2-0.5-0.5-0.8-0.6c-0.3-0.2-0.7-0.3-1.1-0.5c-0.4-0.1-0.8-0.3-1.3-0.4c-0.4-0.1-0.9-0.3-1.3-0.5
			c-0.4-0.2-0.8-0.4-1.1-0.7c-0.3-0.3-0.6-0.6-0.8-1c-0.2-0.4-0.3-0.9-0.3-1.5c0-0.5,0.1-1,0.3-1.5c0.2-0.5,0.5-0.9,0.9-1.2
			c0.4-0.4,0.9-0.6,1.5-0.9c0.6-0.2,1.3-0.3,2-0.3c0.9,0,1.7,0.1,2.4,0.4c0.7,0.3,1.3,0.7,1.8,1.1L498.9,96z"/>
	</g>
</g>
</svg>
