<?xml version="1.0" encoding="utf-8"?>
<!-- Generator: Adobe Illustrator 18.1.1, SVG Export Plug-In . SVG Version: 6.00 Build 0)  -->
<!DOCTYPE svg PUBLIC "-//W3C//DTD SVG 1.1//EN" "http://www.w3.org/Graphics/SVG/1.1/DTD/svg11.dtd">
<svg version="1.1" id="Layer_1" xmlns="http://www.w3.org/2000/svg" xmlns:xlink="http://www.w3.org/1999/xlink" x="0px" y="0px"
	 viewBox="0 0 1417.4 797.3" enable-background="new 0 0 1417.4 797.3" xml:space="preserve">
<g>
	<path fill="#D1D3D4" d="M115,36.8c0,0,0.4-36.8,36.8-36.8h866.1c0,0,34.9-1.2,34.9,36.8l0.2,572.9c0,0-0.3,15-4.2,18.8H120.3
		c0,0-5.3-7.9-5.3-18.4V36.8z"/>
	<path fill="#D1D3D4" d="M117.9,35.9c0,0,1-29.7,27.2-32.1h877c0,0,27.7,0.9,27.7,32.1l0.9,569.1c0,0-1,20-4.4,23.5H122.7
		c0,0-4.8-13.1-4.8-18.8V35.9z"/>
	<path fill="#231F20" d="M1048.5,599.6c0,0-1.5,13.6-14.3,13.6l-899.4-0.7c0,0-13.6,0.7-13.6-13c0-13.6,0.2-566.9,0.2-566.9
		S126,6.3,146,6.3l876.3,0.9c0,0,24.4-1.1,24.4,31.4L1048.5,599.6z"/>
	<path fill="#E6E7E8" d="M583.2,628.5H8.5v18.7c0,0,14.9,15.3,55.1,15.3h519.6h519.6c40.3,0,55.1-15.3,55.1-15.3v-18.7H583.2z"/>
	<path fill="#BCBEC0" d="M583.2,628.5h-80.6c0,8.3,10.2,12,10.2,12h70.4h70.4c0,0,10.2-3.7,10.2-12H583.2z"/>
	<polygon fill="#414042" points="146,40.3 1021.9,40.1 1022.3,587.7 146,587.7 	"/>
	<circle fill="#A7A9AC" cx="584.3" cy="23.1" r="4.2"/>
</g>
<g>
	<path fill="#E6E7E8" d="M988.8,217c0,0-1.6-29.6,32.4-29.2l374.2,0.4c0,0,22.1-0.4,22.1,28.8v554c0,0,1.1,26.3-23.9,26.3H1013
		c0,0-24.6,1.1-24.6-28.8L988.8,217z"/>
	<circle fill="#BCBEC0" cx="1203.6" cy="214.2" r="3.5"/>
	<circle fill="#E6E7E8" stroke="#D1D3D4" stroke-width="5" stroke-miterlimit="10" cx="1203.4" cy="774.1" r="13.3"/>
	<path fill="#414042" d="M1013,241.8c0,0-0.3-3,2.4-3l376.8,0.5c0,0,1.7-0.2,1.7,2.5v502.7c0,0,0.4,1.7-2.5,1.7l-376.1,0.2
		c0,0-2.2,0-2.2-2.7L1013,241.8z"/>
</g>
<g>
	<path fill="#E6E7E8" d="M162.9,362.7c-14.6,0-39.8,0-64.4,0c-0.2,0-0.3,0-0.5,0c-24.5,0-49.8,0-64.4,0c-34.9,0-32.4,32.4-32.4,32.4
		s2.2,285.4,1.9,325.4c-0.2,40.1,32,36.9,32,36.9s30.5,0,62.8,0c0.2,0,0.3,0,0.5,0c32.3,0,62.8,0,62.8,0s32.3,3.2,32-36.9
		c-0.2-40,1.9-325.4,1.9-325.4S197.8,362.7,162.9,362.7z"/>
	<path fill="#E6E7E8" d="M160.9,366.4H98.5H98H35.6C3,366.1,3.8,394.9,3.8,394.9s3.5,290.6,3.3,328.2c-0.2,33.5,27.2,31.8,27.2,31.8
		l63.7,0.2v0l0.2,0l0.2,0v0l63.7-0.2c0,0,27.3,1.7,27.2-31.8c-0.2-37.6,3.3-328.2,3.3-328.2S193.5,366.1,160.9,366.4z"/>
	<path fill="#BCBEC0" d="M1.2,414H0.4c0,0-0.4-0.1-0.4,0.6S0.2,429,0.2,429s0.1,0.6,0.4,0.6s0.9,0,0.9,0L1.2,414z"/>
	<path fill="#414042" d="M11.9,414c0,0-0.2-1.9,1.2-1.9l171,0.2c0,0,2.1-0.4,2.1,2.5l-2.1,295.7c0,0,0.2,2.2-1.7,2.3H15.1
		c0,0-1.6,0.1-1.7-1.8L11.9,414z"/>
	<circle fill="#BCBEC0" cx="68" cy="390" r="3.3"/>
	<circle fill="#BCBEC0" cx="99" cy="377" r="2.2"/>
	<path fill="#BCBEC0" d="M113,388.8H84.9c-0.7,0-1.3,0.6-1.3,1.3c0,0.7,0.6,1.3,1.3,1.3H113c0.7,0,1.3-0.6,1.3-1.3
		C114.3,389.4,113.7,388.8,113,388.8z"/>
	<polygon fill="#BCBEC0" points="0.1,448.6 1.4,448.6 1.8,477.7 0.6,477.7 	"/>
	<polygon fill="#BCBEC0" points="0.7,484.7 2,484.7 2.4,513.8 1.2,513.8 	"/>
	<path fill="#BCBEC0" d="M194.8,458.8c0,0-0.4-2-0.4-3.3l0.2-22c0,0,0.1-2.2,0.5-4h1.3v29.1L194.8,458.8z"/>
	<circle fill="#E6E7E8" stroke="#D1D3D4" stroke-width="5" stroke-miterlimit="10" cx="98.3" cy="733.6" r="13.3"/>
</g>
</svg>
